<svg width="1920" height="1081" viewBox="0 0 1920 1081" fill="none" xmlns="http://www.w3.org/2000/svg">
<g clip-path="url(#clip0_3186_125376)">
<path d="M1920 0.046875H0V1080.05H1920V0.046875Z" fill="#210340"/>
<path d="M1548.9 297.316C1535.66 299.936 1523.1 300.638 1473.9 300.638C1429.76 300.638 1404.09 304.756 1391.51 296.755C1384.58 292.357 1389.35 277.033 1406.38 277.033C1415.86 277.033 1421.26 268.564 1436.68 257.475C1452.1 246.386 1473.04 242.011 1492.24 254.387C1519.26 271.793 1526.1 266.693 1543.13 269.313C1560.16 271.933 1566.03 293.924 1548.9 297.316Z" fill="url(#paint0_linear_3186_125376)"/>
<path d="M457.294 223.699C430.27 229.047 404.631 230.479 304.223 230.479C214.129 230.479 161.753 238.882 136.066 222.553C121.933 213.577 131.673 182.304 166.432 182.304C185.768 182.304 196.797 165.021 228.261 142.389C259.725 119.758 302.457 110.83 341.656 136.087C396.801 171.609 410.743 161.201 445.501 166.549C480.259 171.896 492.243 216.776 457.294 223.699Z" fill="url(#paint1_linear_3186_125376)"/>
<path d="M1811.17 134.44C1787.12 139.352 1751.58 139.235 1662.21 139.235C1582.02 139.235 1510.97 140.99 1499.53 131.141C1488.06 121.292 1499.53 106.53 1530.45 106.53C1547.67 106.53 1576.28 108.167 1608.36 95.0429C1640.43 81.9185 1654.19 67.1564 1704.6 63.8578C1755.02 60.5825 1774.48 91.7442 1805.44 96.6805C1836.36 101.593 1842.31 128.053 1811.17 134.416V134.44Z" fill="url(#paint2_linear_3186_125376)"/>
<path d="M1257.32 791.667C1113.81 782.914 1072.49 731.509 964.043 726.996C876.472 723.365 830.668 758.377 745.648 777.016C434.913 845.149 396.473 828.966 396.473 828.966C396.473 828.966 283.105 951.296 464.547 984.817C696.672 1027.7 1241.66 984.356 1305.63 987C1547.94 997.034 1484.57 789.883 1257.32 791.667Z" fill="url(#paint3_linear_3186_125376)"/>
<path d="M2828.75 742.844C2828.75 742.844 2807.54 751.106 2797.05 754.869C2673.98 799.021 2541.93 814.943 2341.13 814.367C2171.89 813.88 2049.25 791.733 1888.02 770.87C1666.14 742.153 1527.39 748.848 1372.18 782.887C1269.79 805.335 1165.3 839.498 1038.94 852.861C849.529 872.891 699.953 841.898 516.133 796.09C326.821 748.91 44.7506 750.645 -179.553 815.536C-192.071 819.158 -216.422 826.995 -216.422 826.995V1079.19L2828.77 1080.05V742.844H2828.75Z" fill="url(#paint4_linear_3186_125376)"/>
<path d="M1760.33 1046.29C1764.02 1044.2 1767.42 1041.65 1770.45 1038.59C1775.5 1033.51 1778.57 1029.21 1777.93 1021.64C1777.13 1012.11 1771.71 1002.1 1764.79 995.63C1757.06 988.403 1747.72 989.389 1738.41 985.677C1699.98 970.322 1698.48 931.275 1701.01 893.449C1702.97 864.231 1670.58 851.75 1670.58 851.75C1670.58 851.75 1679.62 867.105 1663.8 881.313C1645.49 897.753 1627.87 921.248 1628.62 956.57C1628.66 958.223 1628.97 962.453 1628.97 962.453C1628.97 962.453 1627.75 961.861 1626.14 960.196C1624.08 958.063 1623.27 956.706 1623.27 956.706C1623.27 956.706 1622.6 966.782 1627.34 982.137C1634.39 1005 1649.04 1025.07 1671.6 1038.88C1695.47 1053.5 1734.71 1060.87 1760.32 1046.29H1760.33Z" fill="url(#paint5_linear_3186_125376)"/>
<path d="M1661.53 939.351C1660.34 928.991 1660.71 916.941 1660.71 916.941C1660.71 916.941 1656.96 926.08 1654.79 937.748C1653.18 946.418 1652.34 955.705 1652.45 957.789C1651.92 957.037 1650.39 954.644 1649.09 950.772C1647.47 945.888 1646.32 941.855 1646.32 941.855C1646.38 941.818 1642.31 958.369 1649.77 988.77C1659.24 1012.59 1675.33 1021.16 1682.75 1012.29C1690.18 1003.42 1680.77 994.974 1674.87 986.637C1667.56 976.289 1663.51 956.642 1661.53 939.363V939.351Z" fill="url(#paint6_linear_3186_125376)"/>
<path d="M1872.01 864.801C1871.66 860.472 1862.03 859.387 1857.85 853.023C1856.54 851.025 1856.19 847.744 1856.18 844.155C1856.18 841.022 1856.44 837.668 1856.55 834.745C1856.82 827.863 1856.54 824.089 1856.6 812.446C1856.66 803.209 1855.52 792.972 1851.26 790.567C1847.31 788.335 1840.95 792.676 1831.91 800.989C1826.87 805.626 1823.56 809.634 1820.11 812.496C1819.9 812.668 1819.69 812.853 1819.48 813.014C1819.27 813.174 1814.1 811.83 1811.07 811.225C1810.41 811.09 1810.02 810.337 1809.69 808.981C1808.95 805.959 1808.56 799.916 1806.45 791.085C1803.85 780.096 1800.28 774.719 1795.13 774.275C1790.79 773.905 1783.26 784.844 1777.45 794.008C1772.64 801.593 1772.28 802.37 1770.4 805.096C1769.04 807.081 1767.47 809.449 1765.77 811.805C1762.25 816.677 1758.22 821.536 1754.33 823.078C1747.02 825.976 1741.37 822.066 1738.65 825.445C1736.03 828.689 1738.87 829.281 1739.46 829.836C1755.12 833.795 1752.31 871.091 1759.56 869.278C1765.74 867.736 1767.88 881.611 1780.59 883.202C1793.25 884.781 1803.27 883.733 1812.76 881.969C1832.72 878.257 1852.35 865.27 1868.74 868.526C1867.75 867.009 1872.24 867.576 1872.02 864.789L1872.01 864.801Z" fill="url(#paint7_linear_3186_125376)"/>
<path d="M1839.98 825.7C1846.54 833.31 1853.31 841.006 1856.19 844.15C1856.19 841.018 1856.45 837.663 1856.56 834.74C1856.84 827.858 1856.55 824.084 1856.61 812.442C1856.68 803.204 1855.53 792.967 1851.27 790.562C1847.33 788.33 1840.96 792.671 1831.92 800.984C1826.88 805.621 1823.57 809.63 1820.12 812.491C1824.24 813.971 1833.19 817.856 1839.98 825.712V825.7Z" fill="url(#paint8_linear_3186_125376)"/>
<path d="M1809.71 808.981C1808.97 805.959 1808.59 799.916 1806.48 791.085C1803.85 780.096 1800.28 774.719 1795.13 774.275C1790.79 773.905 1783.26 784.844 1777.45 794.008C1772.64 801.593 1772.28 802.37 1770.4 805.096C1769.03 807.081 1767.47 809.449 1765.77 811.805C1770.74 810.979 1779.63 809.4 1788.32 807.772C1796.9 806.181 1804.88 807.624 1809.71 808.956V808.981Z" fill="url(#paint9_linear_3186_125376)"/>
<path d="M1868.73 868.537C1849.87 861.68 1833.37 862.358 1813.85 865.898C1811.89 866.255 1810.29 866.576 1808.13 866.292C1812.5 870.942 1799.79 882.967 1784.67 880.081C1779.52 879.094 1775.35 877.516 1772.02 875.579C1760.86 869.08 1759.59 858.782 1763.65 853.528C1763.82 853.293 1764.02 853.059 1764.21 852.812C1758.07 851.049 1753.68 833.449 1739.42 829.848C1739.55 829.971 1739.57 830.082 1739.42 830.218C1738.02 831.55 1732.07 828.972 1730.6 832.82C1729.4 835.965 1735.78 836.545 1735.32 838.012C1734.67 840.01 1730.09 839.505 1729.48 841.515C1728.46 844.882 1730.64 844.672 1736.22 849.717C1739.03 852.257 1742.69 856.13 1747.24 862.469C1754.49 872.558 1754.99 895.67 1754.09 911.543C1753.64 919.486 1749.6 937.159 1749.13 946.471C1748.65 956.066 1749.65 964.7 1749.89 972.297C1749.96 976.034 1749.89 981.226 1749.02 984.914C1746.85 995.853 1740.39 997.605 1738.03 1011.99C1734.49 1033.62 1758.03 1041.75 1757.78 1041.82C1757.73 1041.83 1757.64 1041.86 1757.55 1041.87C1758.76 1042.02 1759.93 1042.15 1761.07 1042.29C1766.21 1042.92 1770.68 1043.51 1774.52 1044.05C1776 1044.26 1777.58 1044.46 1778.9 1044.66C1778.51 1047.02 1777.88 1049.76 1777.27 1051.54C1776.42 1054.02 1775.55 1058.53 1776.78 1060.6C1779.25 1064.77 1794.55 1064.14 1795.27 1059.22C1795.61 1056.82 1795.85 1053.88 1795.98 1050.55C1795.98 1050.55 1795.98 1050.58 1795.98 1050.59C1797.72 1050.51 1797.83 1050.54 1798.97 1050.59C1798.98 1051.08 1799.17 1055.66 1799.68 1059.21C1800.4 1064.13 1815.7 1064.76 1818.17 1060.59C1819.39 1058.53 1818.53 1054.02 1817.68 1051.53C1817.28 1050.37 1816.86 1048.71 1816.49 1047.02C1818.42 1046.63 1840.64 1042.09 1842.5 1041.79C1842.53 1041.71 1842.65 1041.62 1842.87 1041.54C1853.06 1038.02 1864.62 1022.42 1859.28 1007.85C1856.22 999.516 1850.56 995.557 1847.39 989.983C1840.82 978.451 1845.83 975.75 1842.94 944.966C1841.68 931.56 1838.16 915.761 1836.73 907.584C1833.9 891.354 1837.57 891.452 1847.13 888.788C1859.48 885.347 1863.68 887.518 1865.35 883.658C1866.14 881.832 1863.19 880.55 1863.84 878.687C1864.85 875.752 1873.1 878.194 1873.71 875.148C1874.48 871.238 1869.65 869.992 1868.69 868.525L1868.73 868.537Z" fill="url(#paint10_linear_3186_125376)"/>
<path opacity="0.6" d="M1868.73 868.537C1849.87 861.68 1833.37 862.358 1813.85 865.898C1811.89 866.255 1810.29 866.576 1808.13 866.292C1812.5 870.942 1799.79 882.967 1784.67 880.081C1779.52 879.094 1775.35 877.516 1772.02 875.579C1760.86 869.08 1759.59 858.782 1763.65 853.528C1763.82 853.293 1764.02 853.059 1764.21 852.812C1758.07 851.049 1753.68 833.449 1739.42 829.848C1739.55 829.971 1739.57 830.082 1739.42 830.218C1738.02 831.55 1732.07 828.972 1730.6 832.82C1729.4 835.965 1735.78 836.545 1735.32 838.012C1734.67 840.01 1730.09 839.505 1729.48 841.515C1728.46 844.882 1730.64 844.672 1736.22 849.717C1739.03 852.257 1742.69 856.13 1747.24 862.469C1754.49 872.558 1754.99 895.67 1754.09 911.543C1753.64 919.486 1749.6 937.159 1749.13 946.471C1748.65 956.066 1749.65 964.7 1749.89 972.297C1749.96 976.034 1749.89 981.226 1749.02 984.914C1746.85 995.853 1740.39 997.605 1738.03 1011.99C1734.49 1033.62 1758.03 1041.75 1757.78 1041.82C1757.73 1041.83 1757.64 1041.86 1757.55 1041.87C1758.76 1042.02 1759.93 1042.15 1761.07 1042.29C1766.21 1042.92 1770.68 1043.51 1774.52 1044.05C1776 1044.26 1777.58 1044.46 1778.9 1044.66C1778.51 1047.02 1777.88 1049.76 1777.27 1051.54C1776.42 1054.02 1775.55 1058.53 1776.78 1060.6C1779.25 1064.77 1794.55 1064.14 1795.27 1059.22C1795.61 1056.82 1795.85 1053.88 1795.98 1050.55C1795.98 1050.55 1795.98 1050.58 1795.98 1050.59C1797.72 1050.51 1797.83 1050.54 1798.97 1050.59C1798.98 1051.08 1799.17 1055.66 1799.68 1059.21C1800.4 1064.13 1815.7 1064.76 1818.17 1060.59C1819.39 1058.53 1818.53 1054.02 1817.68 1051.53C1817.28 1050.37 1816.86 1048.71 1816.49 1047.02C1818.42 1046.63 1840.64 1042.09 1842.5 1041.79C1842.53 1041.71 1842.65 1041.62 1842.87 1041.54C1853.06 1038.02 1864.62 1022.42 1859.28 1007.85C1856.22 999.516 1850.56 995.557 1847.39 989.983C1840.82 978.451 1845.83 975.75 1842.94 944.966C1841.68 931.56 1838.16 915.761 1836.73 907.584C1833.9 891.354 1837.57 891.452 1847.13 888.788C1859.48 885.347 1863.68 887.518 1865.35 883.658C1866.14 881.832 1863.19 880.55 1863.84 878.687C1864.85 875.752 1873.1 878.194 1873.71 875.148C1874.48 871.238 1869.65 869.992 1868.69 868.525L1868.73 868.537Z" fill="url(#paint11_linear_3186_125376)"/>
<path d="M1774.77 1044.05C1770.93 1043.51 1766.47 1042.92 1761.31 1042.29C1760.18 1042.15 1759.01 1042 1757.8 1041.87C1756.33 1042.18 1750.26 1043.15 1745.85 1048.55C1744.28 1050.46 1743.76 1051.96 1743.75 1053.19C1743.75 1054.02 1743.96 1054.72 1744.28 1055.35C1745.74 1058.17 1752.8 1057.9 1756.89 1056.82C1759.21 1056.2 1762.19 1055.51 1765.52 1054.84C1769.15 1054.11 1773.15 1053.42 1777.1 1052.87C1777.22 1052.42 1777.36 1051.98 1777.51 1051.52C1778.09 1049.82 1778.73 1047.1 1779.14 1044.68C1777.78 1044.48 1776.31 1044.26 1774.76 1044.04L1774.77 1044.05Z" fill="url(#paint12_linear_3186_125376)"/>
<path d="M1852.89 1049.17C1851.96 1048.04 1850.36 1046.75 1847.77 1045.25C1844.48 1043.34 1841.54 1042.5 1841.94 1041.91C1841.41 1041.99 1840.89 1042.08 1840.35 1042.19C1829.19 1044.45 1821.69 1045.75 1816.63 1046.48C1817.01 1048.37 1817.48 1050.24 1817.92 1051.53C1818.07 1051.96 1818.21 1052.4 1818.32 1052.83C1818.37 1053.02 1818.41 1053.19 1818.46 1053.38C1828.2 1054.86 1832.49 1056.71 1840.31 1057.1C1849.08 1057.54 1851.8 1056.67 1853.28 1054.04C1854.09 1052.61 1854.48 1051.11 1852.89 1049.16V1049.17Z" fill="url(#paint13_linear_3186_125376)"/>
<path opacity="0.38" d="M1778.8 1014.36C1775.07 1000.18 1763.57 989.112 1749.09 985.918C1748.88 986.818 1748.62 987.694 1748.33 988.545C1748.33 988.57 1748.3 988.607 1748.3 988.631C1747.87 989.889 1747.37 991.11 1746.73 992.282C1743.52 998.091 1739.89 1002.15 1738.29 1011.98C1734.75 1033.61 1758.29 1041.74 1758.03 1041.81C1757.99 1041.82 1757.9 1041.85 1757.81 1041.86C1759.02 1042.01 1760.19 1042.15 1761.33 1042.28C1766.47 1042.91 1770.94 1043.5 1774.78 1044.04C1777.26 1039.79 1778.98 1035.03 1779.7 1029.96C1779.57 1025.2 1779.26 1019.88 1778.83 1014.35L1778.8 1014.36Z" fill="url(#paint14_radial_3186_125376)"/>
<path d="M1794.48 999.966C1793.71 1000.89 1793.26 1006.89 1792.27 1007.39C1791.48 1007.79 1791.09 1002.68 1790.27 998.067C1790.05 996.821 1789.21 992.776 1788.99 991.592C1787.96 985.82 1787.96 986.276 1787.09 981.565C1786.92 985.327 1786.57 986.326 1785.88 992.098C1785.55 994.897 1785.07 998.264 1784.67 1000.13C1784.33 1001.75 1783.8 995.699 1783.47 994.108C1781.86 986.387 1780.75 984.328 1778.58 976.644C1777.36 972.303 1773.53 968.295 1773.16 965.52C1774.91 977.372 1777.42 996.994 1778.78 1014.37C1779.21 1019.91 1779.53 1025.22 1779.65 1029.99C1779.78 1034.56 1779.74 1038.63 1779.48 1041.91C1779.42 1042.71 1779.28 1043.69 1779.11 1044.71C1778.71 1047.13 1778.06 1049.85 1777.48 1051.56C1777.34 1052 1777.2 1052.46 1777.08 1052.9C1776.18 1056.19 1776.18 1059.25 1776.99 1060.63C1779.46 1064.8 1794.76 1064.17 1795.48 1059.25C1795.82 1056.85 1796.06 1053.9 1796.19 1050.56C1796.71 1037.98 1795.84 1019.5 1794.44 999.991L1794.48 999.966Z" fill="url(#paint15_linear_3186_125376)"/>
<path d="M1818.32 1052.84C1818.2 1052.41 1818.07 1051.98 1817.92 1051.53C1817.48 1050.24 1817.01 1048.36 1816.63 1046.49C1816.3 1044.82 1816.03 1043.16 1815.93 1041.89C1814.55 1024.52 1819.42 984.772 1822.27 965.508C1821.9 968.283 1818.06 972.291 1816.84 976.632C1814.68 984.316 1813.56 986.376 1811.96 994.096C1811.62 995.687 1811.09 1001.74 1810.75 1000.11C1810.35 998.253 1809.87 994.898 1809.54 992.086C1808.85 986.314 1808.5 985.315 1808.33 981.553C1807.47 986.265 1807.47 985.821 1806.43 991.58C1806.22 992.777 1805.37 996.81 1805.15 998.055C1804.33 1002.67 1803.95 1007.77 1803.15 1007.38C1802.15 1006.87 1801.71 1000.88 1800.94 999.955C1799.55 1019.47 1798.67 1037.94 1799.19 1050.51C1799.33 1053.85 1799.56 1056.8 1799.91 1059.2C1800.62 1064.12 1815.93 1064.75 1818.39 1060.58C1819.16 1059.29 1819.2 1056.45 1818.43 1053.37C1818.38 1053.19 1818.34 1053.01 1818.29 1052.83L1818.32 1052.84Z" fill="url(#paint16_linear_3186_125376)"/>
<path opacity="0.6" d="M1796.18 908.145C1796.18 908.145 1779.99 920.121 1784.34 948.08C1787.83 970.465 1790.7 975.645 1792.9 989.853C1795.11 1004.06 1797.46 1020.46 1797.46 1020.46C1797.46 1020.46 1799.45 1004.6 1802.13 989.483C1804.04 978.679 1807.87 964.138 1809.92 946.662C1813.23 918.517 1796.17 908.133 1796.17 908.133L1796.18 908.145Z" fill="url(#paint17_linear_3186_125376)"/>
<path d="M1780.32 845.346C1789.61 846.591 1796.22 860.935 1806.55 865.227C1814.81 868.656 1801.18 883.234 1784.7 880.089C1762.51 875.858 1758.26 860.54 1763.68 853.535C1766.59 849.773 1772.53 844.297 1780.33 845.346H1780.32Z" fill="#FFC635"/>
<path d="M1779.81 847.675C1776.44 846.614 1774.15 847.478 1773.2 848.662C1772.03 850.117 1772.4 854.027 1776.56 855.334C1780.51 856.58 1783.77 854.051 1783.82 852.053C1783.86 850.635 1782.8 848.612 1779.81 847.675Z" fill="#00073A"/>
<path d="M1815.62 838.898C1819.68 839.996 1821.2 843.363 1817.94 850.8C1815.37 856.646 1812.84 856.399 1809.01 855.326C1807.01 854.759 1804.49 851.762 1806.44 847.297C1809.08 841.204 1811.36 837.751 1815.62 838.898Z" fill="url(#paint18_linear_3186_125376)"/>
<path d="M1812.86 844.36C1812.45 845.346 1811.31 845.901 1810.33 845.605C1809.34 845.309 1808.87 844.261 1809.28 843.274C1809.69 842.288 1810.82 841.733 1811.81 842.029C1812.79 842.325 1813.26 843.373 1812.86 844.36Z" fill="white"/>
<path d="M1781.75 825.38C1787.09 826.564 1786.72 831.189 1783.43 838.071C1781.37 842.375 1778.9 842.301 1775.09 841.228C1773.11 840.673 1770.39 838.54 1773.18 832.632C1775.44 827.834 1778.38 824.628 1781.75 825.368V825.38Z" fill="url(#paint19_linear_3186_125376)"/>
<path d="M1779.91 831.089C1779.49 832.1 1778.33 832.68 1777.32 832.371C1776.31 832.063 1775.83 830.99 1776.25 829.979C1776.67 828.967 1777.83 828.388 1778.84 828.696C1779.85 829.004 1780.33 830.077 1779.91 831.089Z" fill="white"/>
</g>
<defs>
<linearGradient id="paint0_linear_3186_125376" x1="1473.17" y1="336.733" x2="1475.55" y2="247.933" gradientUnits="userSpaceOnUse">
<stop stop-color="#210340"/>
<stop offset="0.23" stop-color="#29074C"/>
<stop offset="0.65" stop-color="#3E126D"/>
<stop offset="1" stop-color="#541D8F"/>
</linearGradient>
<linearGradient id="paint1_linear_3186_125376" x1="302.72" y1="304.143" x2="307.596" y2="122.915" gradientUnits="userSpaceOnUse">
<stop stop-color="#210340"/>
<stop offset="0.23" stop-color="#29074C"/>
<stop offset="0.65" stop-color="#3E126D"/>
<stop offset="1" stop-color="#541D8F"/>
</linearGradient>
<linearGradient id="paint2_linear_3186_125376" x1="1662.19" y1="187.793" x2="1664.51" y2="64.9804" gradientUnits="userSpaceOnUse">
<stop stop-color="#210340"/>
<stop offset="0.23" stop-color="#29074C"/>
<stop offset="0.65" stop-color="#3E126D"/>
<stop offset="1" stop-color="#541D8F"/>
</linearGradient>
<linearGradient id="paint3_linear_3186_125376" x1="912.57" y1="865.295" x2="914.215" y2="609.257" gradientUnits="userSpaceOnUse">
<stop stop-color="#210340"/>
<stop offset="0.23" stop-color="#29074C"/>
<stop offset="0.65" stop-color="#3E126D"/>
<stop offset="1" stop-color="#541D8F"/>
</linearGradient>
<linearGradient id="paint4_linear_3186_125376" x1="1316.46" y1="1088.79" x2="1316.87" y2="624.264" gradientUnits="userSpaceOnUse">
<stop stop-color="#210340"/>
<stop offset="0.23" stop-color="#29074C"/>
<stop offset="0.65" stop-color="#3E126D"/>
<stop offset="1" stop-color="#541D8F"/>
</linearGradient>
<linearGradient id="paint5_linear_3186_125376" x1="1634.05" y1="864.527" x2="1732.11" y2="1059.16" gradientUnits="userSpaceOnUse">
<stop stop-color="#FFEB49"/>
<stop offset="0.45" stop-color="#FF6600"/>
<stop offset="0.53" stop-color="#FE6009"/>
<stop offset="0.68" stop-color="#FD5322"/>
<stop offset="0.86" stop-color="#FC3C4C"/>
<stop offset="1" stop-color="#FB2872"/>
</linearGradient>
<linearGradient id="paint6_linear_3186_125376" x1="1657.04" y1="916.214" x2="1666.85" y2="995.258" gradientUnits="userSpaceOnUse">
<stop stop-color="#FFEB49"/>
<stop offset="0.09" stop-color="#FFE545" stop-opacity="0.96"/>
<stop offset="0.24" stop-color="#FFD63D" stop-opacity="0.84"/>
<stop offset="0.44" stop-color="#FFBD2F" stop-opacity="0.66"/>
<stop offset="0.67" stop-color="#FF9A1C" stop-opacity="0.4"/>
<stop offset="0.94" stop-color="#FF6F05" stop-opacity="0.07"/>
<stop offset="1" stop-color="#FF6600" stop-opacity="0"/>
</linearGradient>
<linearGradient id="paint7_linear_3186_125376" x1="1829.71" y1="769.81" x2="1771.28" y2="949.284" gradientUnits="userSpaceOnUse">
<stop offset="0.17" stop-color="#FF6600"/>
<stop offset="0.54" stop-color="#FF9C00"/>
<stop offset="0.9" stop-color="#FF6700"/>
<stop offset="0.91" stop-color="#FF6600"/>
</linearGradient>
<linearGradient id="paint8_linear_3186_125376" x1="1841.21" y1="823.583" x2="1865.62" y2="784.924" gradientUnits="userSpaceOnUse">
<stop stop-color="#FF6600" stop-opacity="0"/>
<stop offset="0.11" stop-color="#FF6600" stop-opacity="0.3"/>
<stop offset="0.23" stop-color="#FF6600" stop-opacity="0.6"/>
<stop offset="0.32" stop-color="#FF6600" stop-opacity="0.82"/>
<stop offset="0.4" stop-color="#FF6600" stop-opacity="0.95"/>
<stop offset="0.43" stop-color="#FF6600"/>
<stop offset="0.72" stop-color="#FD4737"/>
<stop offset="1" stop-color="#FB2872"/>
</linearGradient>
<linearGradient id="paint9_linear_3186_125376" x1="1788.02" y1="807.054" x2="1793.45" y2="761.556" gradientUnits="userSpaceOnUse">
<stop stop-color="#FF6600" stop-opacity="0"/>
<stop offset="0.03" stop-color="#FF6600" stop-opacity="0.17"/>
<stop offset="0.07" stop-color="#FF6600" stop-opacity="0.36"/>
<stop offset="0.11" stop-color="#FF6600" stop-opacity="0.53"/>
<stop offset="0.15" stop-color="#FF6600" stop-opacity="0.68"/>
<stop offset="0.2" stop-color="#FF6600" stop-opacity="0.8"/>
<stop offset="0.24" stop-color="#FF6600" stop-opacity="0.89"/>
<stop offset="0.29" stop-color="#FF6600" stop-opacity="0.95"/>
<stop offset="0.35" stop-color="#FF6600" stop-opacity="0.99"/>
<stop offset="0.42" stop-color="#FF6600"/>
<stop offset="0.7" stop-color="#FD4737"/>
<stop offset="0.97" stop-color="#FB2872"/>
</linearGradient>
<linearGradient id="paint10_linear_3186_125376" x1="1801.55" y1="825.58" x2="1801.55" y2="1077.67" gradientUnits="userSpaceOnUse">
<stop stop-color="#FF6600"/>
<stop offset="0.01" stop-color="#FF7408"/>
<stop offset="0.04" stop-color="#FF8A14"/>
<stop offset="0.07" stop-color="#FF9B1D"/>
<stop offset="0.11" stop-color="#FFA724"/>
<stop offset="0.17" stop-color="#FFAE27"/>
<stop offset="0.33" stop-color="#FFB029"/>
<stop offset="0.46" stop-color="#FF9218"/>
<stop offset="0.63" stop-color="#FF6600"/>
<stop offset="0.64" stop-color="#FE5D0F"/>
<stop offset="0.69" stop-color="#FD4A32"/>
<stop offset="0.74" stop-color="#FC3B4E"/>
<stop offset="0.79" stop-color="#FB3062"/>
<stop offset="0.84" stop-color="#FB2A6E"/>
<stop offset="0.89" stop-color="#FB2872"/>
</linearGradient>
<linearGradient id="paint11_linear_3186_125376" x1="1801.55" y1="825.58" x2="1801.55" y2="1077.67" gradientUnits="userSpaceOnUse">
<stop stop-color="#FFEB49" stop-opacity="0.8"/>
<stop offset="0.23" stop-color="#FFC836" stop-opacity="0.59"/>
<stop offset="0.6" stop-color="#FF9319" stop-opacity="0.28"/>
<stop offset="0.87" stop-color="#FF7207" stop-opacity="0.08"/>
<stop offset="1" stop-color="#FF6600" stop-opacity="0"/>
</linearGradient>
<linearGradient id="paint12_linear_3186_125376" x1="1859.07" y1="1010.6" x2="1705.36" y2="1071.86" gradientUnits="userSpaceOnUse">
<stop offset="0.02" stop-color="#BE0449" stop-opacity="0"/>
<stop offset="0.51" stop-color="#FB2872"/>
<stop offset="0.67" stop-color="#A31C5E"/>
<stop offset="0.83" stop-color="#4C104A"/>
<stop offset="0.94" stop-color="#15093E"/>
<stop offset="1" stop-color="#00073A"/>
</linearGradient>
<linearGradient id="paint13_linear_3186_125376" x1="1772.95" y1="1025.27" x2="1877.85" y2="1066.29" gradientUnits="userSpaceOnUse">
<stop stop-color="#BE0449" stop-opacity="0"/>
<stop offset="0.41" stop-color="#FB2872"/>
<stop offset="1" stop-color="#00073A"/>
</linearGradient>
<radialGradient id="paint14_radial_3186_125376" cx="0" cy="0" r="1" gradientUnits="userSpaceOnUse" gradientTransform="translate(1740.71 1029.73) scale(65.1073 65.1073)">
<stop stop-color="#FFEB49"/>
<stop offset="0.05" stop-color="#FFE546" stop-opacity="0.96"/>
<stop offset="0.14" stop-color="#FFD73E" stop-opacity="0.85"/>
<stop offset="0.25" stop-color="#FFC031" stop-opacity="0.68"/>
<stop offset="0.38" stop-color="#FFA01F" stop-opacity="0.44"/>
<stop offset="0.53" stop-color="#FF7709" stop-opacity="0.13"/>
<stop offset="0.59" stop-color="#FF6600" stop-opacity="0"/>
</radialGradient>
<linearGradient id="paint15_linear_3186_125376" x1="1783.39" y1="967.061" x2="1787.87" y2="1085.88" gradientUnits="userSpaceOnUse">
<stop offset="0.01" stop-color="#BE0449" stop-opacity="0"/>
<stop offset="0.06" stop-color="#BF054A" stop-opacity="0.04"/>
<stop offset="0.14" stop-color="#C2084C" stop-opacity="0.16"/>
<stop offset="0.23" stop-color="#C70D51" stop-opacity="0.36"/>
<stop offset="0.35" stop-color="#CE1457" stop-opacity="0.63"/>
<stop offset="0.48" stop-color="#D71E5F" stop-opacity="0.97"/>
<stop offset="0.49" stop-color="#D81F60"/>
<stop offset="0.56" stop-color="#D31E5F"/>
<stop offset="0.63" stop-color="#C71D5D"/>
<stop offset="0.7" stop-color="#B31A59"/>
<stop offset="0.77" stop-color="#971754"/>
<stop offset="0.84" stop-color="#73134E"/>
<stop offset="0.91" stop-color="#460E46"/>
<stop offset="0.98" stop-color="#13093D"/>
<stop offset="1" stop-color="#00073A"/>
</linearGradient>
<linearGradient id="paint16_linear_3186_125376" x1="1812.61" y1="945.281" x2="1807.66" y2="1086.77" gradientUnits="userSpaceOnUse">
<stop stop-color="#D81F60" stop-opacity="0"/>
<stop offset="0.11" stop-color="#D81F60" stop-opacity="0.01"/>
<stop offset="0.19" stop-color="#D81F60" stop-opacity="0.06"/>
<stop offset="0.27" stop-color="#D81F60" stop-opacity="0.14"/>
<stop offset="0.35" stop-color="#D81F60" stop-opacity="0.25"/>
<stop offset="0.42" stop-color="#D81F60" stop-opacity="0.39"/>
<stop offset="0.49" stop-color="#D81F60" stop-opacity="0.57"/>
<stop offset="0.55" stop-color="#D81F60" stop-opacity="0.77"/>
<stop offset="0.62" stop-color="#D81F60"/>
<stop offset="0.66" stop-color="#D21E5F"/>
<stop offset="0.71" stop-color="#C21C5C"/>
<stop offset="0.77" stop-color="#A81957"/>
<stop offset="0.83" stop-color="#841551"/>
<stop offset="0.9" stop-color="#551049"/>
<stop offset="0.97" stop-color="#1D0A3F"/>
<stop offset="1" stop-color="#00073A"/>
</linearGradient>
<linearGradient id="paint17_linear_3186_125376" x1="1796.66" y1="932.035" x2="1801.48" y2="1038.15" gradientUnits="userSpaceOnUse">
<stop stop-color="#FFEB49"/>
<stop offset="0.09" stop-color="#FFE847" stop-opacity="0.96"/>
<stop offset="0.24" stop-color="#FFE143" stop-opacity="0.84"/>
<stop offset="0.44" stop-color="#FFD63D" stop-opacity="0.66"/>
<stop offset="0.67" stop-color="#FFC735" stop-opacity="0.4"/>
<stop offset="0.94" stop-color="#FFB42B" stop-opacity="0.07"/>
<stop offset="1" stop-color="#FFB029" stop-opacity="0"/>
</linearGradient>
<linearGradient id="paint18_linear_3186_125376" x1="1815.7" y1="833.188" x2="1811" y2="855.61" gradientUnits="userSpaceOnUse">
<stop offset="0.16" stop-color="#A030B9"/>
<stop offset="0.88" stop-color="#00073A"/>
</linearGradient>
<linearGradient id="paint19_linear_3186_125376" x1="1782.11" y1="820.989" x2="1777.43" y2="839.687" gradientUnits="userSpaceOnUse">
<stop offset="0.16" stop-color="#A030B9"/>
<stop offset="0.88" stop-color="#00073A"/>
</linearGradient>
<clipPath id="clip0_3186_125376">
<rect width="1920" height="1081" fill="white"/>
</clipPath>
</defs>
</svg>